<svg width="24" height="24" viewBox="0 0 24 24" fill="none" xmlns="http://www.w3.org/2000/svg">
<path d="M9 14.438C9.51777 14.438 9.9375 14.0183 9.9375 13.5005C9.9375 12.9827 9.51777 12.563 9 12.563C8.48223 12.563 8.0625 12.9827 8.0625 13.5005C8.0625 14.0183 8.48223 14.438 9 14.438Z" fill="white"/>
<path d="M15 14.438C15.5178 14.438 15.9375 14.0183 15.9375 13.5005C15.9375 12.9827 15.5178 12.563 15 12.563C14.4822 12.563 14.0625 12.9827 14.0625 13.5005C14.0625 14.0183 14.4822 14.438 15 14.438Z" fill="white"/>
<path d="M6.9751 7.5004C8.60105 6.99149 10.2962 6.73847 11.9999 6.7504C13.7036 6.73847 15.3988 6.99148 17.0247 7.50038" stroke="white" stroke-width="1.5" stroke-linecap="round" stroke-linejoin="round"/>
<path d="M17.0248 16.5005C15.3989 17.0094 13.7038 17.2624 12.0001 17.2505C10.2964 17.2624 8.60127 17.0094 6.97534 16.5005" stroke="white" stroke-width="1.5" stroke-linecap="round" stroke-linejoin="round"/>
<path d="M14.5354 17.0715L15.6628 19.3262C15.7379 19.4776 15.8622 19.5991 16.0153 19.6708C16.1684 19.7425 16.3413 19.7601 16.5057 19.7208C18.8062 19.1584 20.7894 18.1778 22.2338 16.9223C22.3441 16.8275 22.4247 16.7028 22.4658 16.5632C22.5069 16.4237 22.5068 16.2752 22.4656 16.1358L19.2805 5.51892C19.2484 5.41186 19.1928 5.31332 19.1177 5.23047C19.0427 5.14761 18.9501 5.08252 18.8468 5.03994C17.947 4.67153 17.0163 4.38344 16.0657 4.17905C15.8846 4.13936 15.6952 4.16801 15.534 4.25949C15.3727 4.35097 15.2509 4.49883 15.1921 4.67465L14.4446 6.91711" stroke="white" stroke-width="1.5" stroke-linecap="round" stroke-linejoin="round"/>
<path d="M9.46459 17.0714L8.33722 19.3262C8.2621 19.4776 8.13783 19.5991 7.98472 19.6708C7.83161 19.7425 7.65872 19.7601 7.4943 19.7208C5.1938 19.1584 3.2106 18.1778 1.76617 16.9223C1.65586 16.8275 1.57531 16.7028 1.53419 16.5632C1.49308 16.4237 1.49316 16.2753 1.53442 16.1358L4.71947 5.51891C4.75162 5.41186 4.80723 5.31332 4.88226 5.23046C4.95729 5.1476 5.04985 5.08252 5.1532 5.03994C6.05302 4.67152 6.98366 4.38344 7.93424 4.17905C8.11535 4.13936 8.30475 4.16801 8.46602 4.25949C8.62729 4.35097 8.74905 4.49883 8.80792 4.67465L9.55541 6.91711" stroke="white" stroke-width="1.5" stroke-linecap="round" stroke-linejoin="round"/>
</svg>
