<svg width="180" height="40" viewBox="0 0 180 40" fill="none" xmlns="http://www.w3.org/2000/svg">
<path d="M162.214 8.02788L158.061 0.138672H150.034L158.2 15.225L162.214 8.02788Z" fill="#55F985"/>
<path d="M168.303 19.1004L178.683 0.138672H171.348L164.566 12.7337L158.753 23.1143L149.479 39.9999H156.953L164.427 25.6056L171.486 39.9999H179.791L168.303 19.1004Z" fill="#55F985"/>
<path d="M9.82691 39.9997V6.64355H0V0H27.2662V6.64355H17.4393V39.9997H9.82691Z" fill="#587BBD"/>
<path d="M9.82691 39.9997V6.64355H0V0H27.2662V6.64355H17.4393V39.9997H9.82691Z" fill="#4D8BFF"/>
<path d="M98.5459 39.9997V0H106.574L118.061 20.069C118.892 21.5915 119.722 23.2524 120.553 24.7749C121.245 26.2974 121.937 27.9582 122.629 29.6191C122.49 28.3735 122.352 27.1278 122.214 25.8821C122.075 24.4981 122.075 23.114 122.075 21.5915V0H128.995V39.9997H122.075L109.618 19.377C108.926 18.2697 108.234 16.8857 107.404 15.2248C106.712 13.5639 105.881 11.7646 105.051 9.82692C105.189 10.9342 105.328 12.1798 105.466 13.4255C105.605 14.6712 105.605 16.1936 105.605 17.9929V39.9997H98.5459V39.9997Z" fill="#55F985"/>
<path d="M135.639 39.9997V0H143.252V39.9997H135.639Z" fill="#55F985"/>
<path d="M41.3841 33.0793V26.5742H41.5225V22.2836H54.948V15.9168H41.5225V6.50514H59.3771V0H41.5225H33.9102V6.50514V15.9168V26.5742V39.9997H60.4843V33.0793H41.3841Z" fill="#4D8BFF"/>
<path d="M73.0788 11.903V0H66.02V24.7749L73.0788 11.903Z" fill="#4D8BFF"/>
<path d="M81.2448 19.1002L91.6253 0H84.2898L77.5078 12.5951L73.0788 20.6227V20.4843L66.02 33.3561V39.9997H73.0788V33.6329L77.3694 25.4669L84.4282 39.9997H92.871L81.2448 19.1002Z" fill="#4D8BFF"/>
</svg>
