<svg width="24" height="24" viewBox="0 0 24 24" fill="none" xmlns="http://www.w3.org/2000/svg">
<path d="M15.75 9.93639C17.2789 11.0374 19.1159 11.6285 21 11.6255V7.87549C19.6076 7.87549 18.2723 7.32236 17.2877 6.3378C16.3031 5.35323 15.75 4.01787 15.75 2.62549H12V14.6255C11.9999 15.0952 11.8737 15.5563 11.6347 15.9607C11.3956 16.365 11.0525 16.6978 10.641 16.9244C10.2295 17.1509 9.76473 17.2629 9.29521 17.2486C8.8257 17.2343 8.36861 17.0943 7.97164 16.8432C7.57468 16.592 7.25237 16.239 7.03834 15.8209C6.82431 15.4027 6.72641 14.9348 6.75484 14.4659C6.78327 13.9971 6.93699 13.5444 7.19998 13.1552C7.46296 12.766 7.82557 12.4545 8.24997 12.2531L8.25003 8.34944C7.0562 8.56336 5.94817 9.11336 5.05595 9.9349C4.16374 10.7564 3.52437 11.8154 3.21288 12.9876C2.90139 14.1597 2.9307 15.3964 3.29738 16.5525C3.66405 17.7086 4.35288 18.7361 5.28302 19.5144C6.21315 20.2928 7.346 20.7897 8.54862 20.9468C9.75124 21.1039 10.9737 20.9147 12.0726 20.4014C13.1715 19.8882 14.1011 19.0721 14.7525 18.049C15.4039 17.026 15.7499 15.8383 15.75 14.6255L15.75 9.93639Z" stroke="white" stroke-width="1.5" stroke-linecap="round" stroke-linejoin="round"/>
</svg>
