<svg width="24" height="24" viewBox="0 0 24 24" fill="none" xmlns="http://www.w3.org/2000/svg">
<path d="M12 8.25076C12.0001 7.38916 12.2968 6.55386 12.8403 5.88529C13.3838 5.21673 14.1409 4.75566 14.9843 4.57962C15.8277 4.40357 16.7061 4.52329 17.4716 4.91863C18.2371 5.31397 18.8432 5.96083 19.188 6.75046L22.5 6.75049L19.4754 9.7751C19.2785 12.8173 17.9311 15.6705 15.707 17.7553C13.4828 19.8402 10.5486 21.0004 7.50002 21.0005C4.50002 21.0005 3.75002 19.8755 3.75002 19.8755C3.75002 19.8755 6.75002 18.7505 8.25002 16.5005C8.25002 16.5005 2.25002 13.5005 3.75002 5.25049C3.75002 5.25049 7.50002 9.00049 11.9987 9.75049L12 8.25076Z" stroke="white" stroke-width="1.5" stroke-linecap="round" stroke-linejoin="round"/>
</svg>
